<svg width="68" height="69" viewBox="0 0 68 69" fill="none" xmlns="http://www.w3.org/2000/svg">
<g clip-path="url(#clip0_1_368)">
<path d="M67.5 1.29761L42.004 1.30361V32.8026H53.17L53.183 33.2886L53.358 39.4856C53.358 49.8516 47.912 55.1836 37.184 55.3436V67.9776C40.576 68.1916 43 68.2976 44.597 68.2976C59.88 68.2976 67.5 57.5996 67.5 35.9416V1.29761ZM3.44499 33.2976V33.2856L3.66699 32.8526L3.67299 32.8556L3.44599 33.2976H3.44499ZM3.93899 32.8006H15.11L15.124 33.2866L15.298 39.4806C15.298 49.2456 10.315 54.5716 0.498993 55.3126V67.9806C3.33499 68.1886 5.35199 68.2926 6.53499 68.2926C21.817 68.2926 29.437 57.5956 29.437 35.9396V1.29761H3.93699V32.7996L3.93899 32.8006Z" stroke="#A0B3D9"/>
</g>
<defs>
<clipPath id="clip0_1_368">
<rect width="68" height="68" fill="white" transform="translate(0 0.797607)"/>
</clipPath>
</defs>
</svg>
