<svg width="32" height="27" viewBox="0 0 32 27" fill="none" xmlns="http://www.w3.org/2000/svg">
<g filter="url(#filter0_d_1_283)">
<path d="M16.344 9.74588C16.9269 9.22968 17.3944 8.59122 17.7149 7.87385C18.0353 7.15647 18.2011 6.37697 18.2011 5.58824C18.2011 4.10614 17.6256 2.68475 16.6013 1.63676C15.577 0.588759 14.1877 1.99959e-07 12.7391 1.99959e-07C11.2905 1.99959e-07 9.90127 0.588759 8.87695 1.63676C7.85263 2.68475 7.27718 4.10614 7.27718 5.58824C7.27717 6.37697 7.443 7.15647 7.76343 7.87385C8.08385 8.59122 8.55137 9.22968 9.13424 9.74588C7.60505 10.4543 6.30764 11.5984 5.39715 13.0413C4.48666 14.4842 4.00161 16.1649 4 17.8824C4 18.1788 4.11509 18.4631 4.31995 18.6726C4.52482 18.8822 4.80267 19 5.09239 19C5.38211 19 5.65997 18.8822 5.86483 18.6726C6.06969 18.4631 6.18478 18.1788 6.18478 17.8824C6.18478 16.1038 6.87533 14.3982 8.10451 13.1406C9.33369 11.883 11.0008 11.1765 12.7391 11.1765C14.4775 11.1765 16.1446 11.883 17.3738 13.1406C18.6029 14.3982 19.2935 16.1038 19.2935 17.8824C19.2935 18.1788 19.4086 18.4631 19.6134 18.6726C19.8183 18.8822 20.0962 19 20.3859 19C20.6756 19 20.9535 18.8822 21.1583 18.6726C21.3632 18.4631 21.4783 18.1788 21.4783 17.8824C21.4767 16.1649 20.9916 14.4842 20.0811 13.0413C19.1706 11.5984 17.8732 10.4543 16.344 9.74588ZM12.7391 8.94118C12.091 8.94118 11.4574 8.74453 10.9184 8.3761C10.3795 8.00768 9.95946 7.48402 9.71142 6.87135C9.46338 6.25868 9.39848 5.58452 9.52493 4.93411C9.65138 4.2837 9.9635 3.68627 10.4218 3.21735C10.8801 2.74843 11.4641 2.42909 12.0998 2.29972C12.7355 2.17035 13.3944 2.23675 13.9933 2.49052C14.5921 2.7443 15.1039 3.17405 15.464 3.72544C15.8241 4.27683 16.0163 4.92509 16.0163 5.58824C16.0163 6.47749 15.671 7.33032 15.0565 7.95912C14.4419 8.58792 13.6083 8.94118 12.7391 8.94118ZM23.379 9.29882C24.0781 8.49337 24.5348 7.49836 24.6941 6.43356C24.8533 5.36876 24.7084 4.27955 24.2767 3.29706C23.8451 2.31456 23.145 1.48065 22.2609 0.895708C21.3768 0.310762 20.3463 -0.000287906 19.2935 1.99959e-07C19.0038 1.99959e-07 18.7259 0.117752 18.5211 0.327351C18.3162 0.536951 18.2011 0.821229 18.2011 1.11765C18.2011 1.41407 18.3162 1.69834 18.5211 1.90794C18.7259 2.11754 19.0038 2.23529 19.2935 2.23529C20.1627 2.23529 20.9962 2.58855 21.6108 3.21735C22.2254 3.84615 22.5707 4.69898 22.5707 5.58824C22.5691 6.17527 22.417 6.7516 22.1294 7.25959C21.8419 7.76758 21.429 8.18943 20.9321 8.48294C20.7701 8.57852 20.6349 8.71504 20.5392 8.87942C20.4436 9.04379 20.3908 9.23054 20.3859 9.42177C20.3813 9.6115 20.424 9.7993 20.5101 9.96746C20.5961 10.1356 20.7225 10.2786 20.8775 10.3829L21.3035 10.6735L21.4455 10.7518C22.7623 11.3907 23.8731 12.4014 24.6473 13.6647C25.4214 14.928 25.8266 16.3913 25.8151 17.8824C25.8151 18.1788 25.9302 18.4631 26.135 18.6726C26.3399 18.8822 26.6177 19 26.9075 19C27.1972 19 27.475 18.8822 27.6799 18.6726C27.8848 18.4631 27.9999 18.1788 27.9999 17.8824C28.0088 16.1672 27.5889 14.4783 26.7802 12.976C25.9714 11.4736 24.8006 10.2078 23.379 9.29882Z" fill="#4C5D73"/>
</g>
<defs>
<filter id="filter0_d_1_283" x="0" y="0" width="32" height="27" filterUnits="userSpaceOnUse" color-interpolation-filters="sRGB">
<feFlood flood-opacity="0" result="BackgroundImageFix"/>
<feColorMatrix in="SourceAlpha" type="matrix" values="0 0 0 0 0 0 0 0 0 0 0 0 0 0 0 0 0 0 127 0" result="hardAlpha"/>
<feOffset dy="4"/>
<feGaussianBlur stdDeviation="2"/>
<feComposite in2="hardAlpha" operator="out"/>
<feColorMatrix type="matrix" values="0 0 0 0 0 0 0 0 0 0 0 0 0 0 0 0 0 0 0.25 0"/>
<feBlend mode="normal" in2="BackgroundImageFix" result="effect1_dropShadow_1_283"/>
<feBlend mode="normal" in="SourceGraphic" in2="effect1_dropShadow_1_283" result="shape"/>
</filter>
</defs>
</svg>
